<?xml version="1.0" standalone="no"?>
<!DOCTYPE svg PUBLIC "-//W3C//DTD SVG 20010904//EN"
 "http://www.w3.org/TR/2001/REC-SVG-20010904/DTD/svg10.dtd">
<svg version="1.0" xmlns="http://www.w3.org/2000/svg"
 width="180.000000pt" height="38.000000pt" viewBox="0 0 180.000000 38.000000"
 preserveAspectRatio="xMidYMid meet">

<g transform="translate(0.000000,38.000000) scale(0.100000,-0.100000)"
fill="#000000" stroke="none">
<path d="M700 358 c-78 -22 -120 -76 -122 -156 -3 -104 48 -171 144 -192 44
-9 62 -9 103 4 30 10 51 12 53 6 2 -6 12 -10 23 -10 17 0 19 8 19 80 l0 80
-50 0 c-53 0 -70 -16 -22 -22 24 -3 27 -8 30 -45 3 -38 0 -43 -27 -57 -38 -20
-113 -20 -151 -1 -67 35 -97 129 -66 210 28 73 96 106 176 85 22 -6 49 -20 58
-31 9 -10 25 -19 36 -19 35 0 -30 57 -79 69 -52 13 -78 13 -125 -1z"/>
<path d="M30 184 l0 -176 88 4 c69 3 96 9 125 26 93 58 111 178 39 264 -37 44
-79 58 -172 58 l-80 0 0 -176z m170 138 c40 -19 80 -88 80 -136 0 -44 -35
-109 -71 -130 -18 -11 -53 -19 -83 -20 l-51 -1 -3 153 -3 152 48 0 c27 0 64
-8 83 -18z"/>
<path d="M420 184 l0 -175 23 3 c22 3 22 5 25 176 l2 172 -25 0 -25 0 0 -176z"/>
<path d="M1030 185 c0 -168 1 -175 20 -175 19 0 20 7 20 175 0 168 -1 175 -20
175 -19 0 -20 -7 -20 -175z"/>
<path d="M1160 350 c0 -6 28 -10 65 -10 l65 0 0 -165 0 -165 25 0 25 0 0 165
0 165 65 0 c37 0 65 4 65 10 0 6 -58 10 -155 10 -97 0 -155 -4 -155 -10z"/>
<path d="M1510 350 c0 -6 40 -10 101 -10 77 0 100 -3 96 -12 -2 -7 -50 -79
-106 -160 -55 -81 -101 -150 -101 -153 0 -3 65 -4 145 -3 177 4 200 21 37 28
l-113 5 96 140 c53 77 101 148 106 158 9 16 0 17 -126 17 -83 0 -135 -4 -135
-10z"/>
</g>
</svg>
